<?xml version="1.0" standalone="no"?>
<!DOCTYPE svg PUBLIC "-//W3C//DTD SVG 20010904//EN"
 "http://www.w3.org/TR/2001/REC-SVG-20010904/DTD/svg10.dtd">
<svg version="1.0" xmlns="http://www.w3.org/2000/svg"
 width="399.000000pt" height="346.000000pt" viewBox="0 0 399.000000 346.000000"
 preserveAspectRatio="xMidYMid meet">

<g transform="translate(0.000000,346.000000) scale(0.100000,-0.100000)"
fill="#000000" stroke="none">
<path d="M1978 3280 c-16 -29 -16 -29 64 -167 44 -76 182 -313 306 -528 124
-214 321 -554 437 -755 116 -201 304 -525 417 -720 113 -195 264 -457 337
-582 72 -124 131 -231 131 -237 0 -8 -482 -11 -1714 -11 l-1714 0 -36 -61
c-20 -33 -36 -62 -36 -65 0 -2 821 -4 1825 -4 1004 0 1825 3 1825 6 0 3 -44
80 -97 172 -53 92 -195 337 -315 544 -120 208 -318 550 -440 760 -122 211
-317 547 -433 748 -116 201 -282 489 -369 640 -88 151 -162 278 -165 282 -3 4
-14 -6 -23 -22z"/>
<path d="M1680 1785 l0 -336 73 3 72 3 3 263 2 262 90 0 90 0 0 70 0 70 -165
0 -165 0 0 -335z"/>
<path d="M1680 955 l0 -165 75 0 75 0 0 95 0 95 90 0 90 0 0 70 0 70 -165 0
-165 0 0 -165z"/>
</g>
</svg>
